<svg xmlns="http://www.w3.org/2000/svg" viewBox="0 0 584.25 205.38"><title>Asset 2</title><g id="Layer_2" data-name="Layer 2"><g id="Layer_1-2" data-name="Layer 1"><path d="M583.75,115.31H558.28V85.94a.5.5,0,0,0-.5-.5h-62a.5.5,0,0,0-.5.5v29.37H470.21L543.4,5.24a.49.49,0,0,0-.42-.77H475.42a.49.49,0,0,0-.41.21L392.08,124.74a.11.11,0,0,0,0,.05s0,0,0,0a.64.64,0,0,0-.06.18v29.59H368.5A110.87,110.87,0,0,0,375,134.75h0a.52.52,0,0,0,.09-.42,143.74,143.74,0,0,0,3.35-31.63A155.33,155.33,0,0,0,377.6,86a1,1,0,0,0,0-.16,127.13,127.13,0,0,0-4.65-23.13.65.65,0,0,0,0-.24.43.43,0,0,0-.14-.23,103.29,103.29,0,0,0-7.61-18.35s0-.07,0-.1a.48.48,0,0,0-.28-.39C350,16,323.52,0,289.47,0c-31.79,0-57,13.94-72.32,38.11h0a.49.49,0,0,0-.26.44,98.71,98.71,0,0,0-10,21.48.57.57,0,0,0-.12.15,0,0,0,0,1,0,0v0a.43.43,0,0,0,0,.25h0a0,0,0,0,0,0,0,130.89,130.89,0,0,0-6.05,34.37s0,0,0,0v0c-.12,2.53-.18,5.11-.18,7.72a152.83,152.83,0,0,0,1,17.94h-9.25v-4.82a.5.5,0,0,0-.5-.5H166.29V85.94a.5.5,0,0,0-.5-.5h-62a.5.5,0,0,0-.5.5v29.37H78.21L151.41,5.24a.49.49,0,0,0,0-.51.51.51,0,0,0-.44-.26H83.42a.52.52,0,0,0-.41.21L.09,124.74s0,0,0,.05a.11.11,0,0,0,0,0A.43.43,0,0,0,0,125V166.9A.36.36,0,0,0,0,167a.11.11,0,0,1,0,.05H0a.5.5,0,0,0,.47.34H101.35v33a.5.5,0,0,0,.5.5h63.94a.5.5,0,0,0,.5-.5v-33h25.46a.5.5,0,0,0,.5-.5V121.63h9.37a129.67,129.67,0,0,0,3.14,16.57s0,0,0,.06a.46.46,0,0,0,.13.33c5.81,22,17.19,39.42,33,50.95a.46.46,0,0,0,.18.13c14,10.16,31.4,15.71,51.45,15.71,29.49,0,53.28-12,68.82-33a.49.49,0,0,0,.27-.26.8.8,0,0,0,0-.15,92.06,92.06,0,0,0,9.47-16.34l0,0H392V166.9a.35.35,0,0,0,0,.11.07.07,0,0,0,0,.05h0a.47.47,0,0,0,.46.34H493.34v33a.5.5,0,0,0,.5.5h63.94a.5.5,0,0,0,.5-.5v-33h25.47a.5.5,0,0,0,.5-.5V115.81A.5.5,0,0,0,583.75,115.31Zm-392.81,1-5.5,8.25-18.33-8.25Zm.11,26.36-31.72-.93,26-15.8Zm-25.11-25.79,18.61,8.38-26.06,15.82Zm-.79-.84-7.92,25.72-21.38,4.65L165.29,108v7.79A.49.49,0,0,0,165.15,116Zm-62.8,61.8V167.33l31.31-19-10.39,28.35Zm19.47-.05-19.47,13V178.84Zm11.66-32.45-28.76-28.76,18.56-1.85Zm-9.2-30.76,40.32-7.29-29.8,38.85ZM134.85,148l29.81,25-40.3,3.58Zm.88-.57,21.53-4.68,7.49,29Zm29.56-61v19.71l-40,7.23,30.16-26.94Zm-11.35,0-30.09,26.88-9.61-26.88Zm-49.63,0h8.87l9.19,25.72-18.06-18.8Zm0,8.37,18.24,19-18.24,1.83Zm-.44,22.33,29.45,29.45-37-2.85Zm-8.54,26.24L80.5,133.18l22.25-15.76Zm-41.2-23.13h0l0,.28-22.9,8.87,7.58-44.48,15.35,35,0,.06a.42.42,0,0,0,0,.19s0,0,0,.07ZM31.05,130.56l22.69-8.8-30.68,42.8Zm-.84-.89-19.71-.94L37.71,85.58ZM39.48,83.9,67,90.32,54.73,118.68Zm66.83-47.15L57.91,68.33,89.22,21ZM90.76,21l41.94,8.25-25.44,7Zm14.79,17.42-16,26.28h-.06l-.14.08-.07,0,0,0L58.32,69.25ZM88.22,66,67.6,89.46,57,70.46Zm-22,23.09L39.78,83,56,70.81Zm1.34,2.39,9.25,24.06a.58.58,0,0,0-.06.26l-21.34,3.71Zm9.59,25.26L79,132.31,56.17,120.43ZM94.47,144l-22,6.41,7.32-16.47Zm8.12-27.69L80,132.3l-1.88-16Zm-25.06-1.77L68.38,90.77l23.4,2.33ZM68.64,89.79,89.25,66.37l2.84,25.76ZM93,91.26,90.36,67.32l9,14.42Zm6.94-10.43-9.34-15L108.47,68Zm-9.3-16,16.1-26.41,2.15,28.65ZM109.81,66l-2.12-28.28,15.19,8.63ZM123.43,45.5l-15-8.52L133.72,30Zm11.22-16.86-43.21-8.5L149.86,5.76ZM146.87,5.47,89.44,19.6,84.14,5.47ZM83.29,6l5.15,13.74L72.15,22.17ZM71.37,23.29,86.81,21,62.6,36Zm16.08-1.48L57,67.93l4.31-30ZM60,39.72,55.76,69.4,42.54,65.05ZM41.94,65.9,55.1,70.24,38.32,82.79v0h0l0,0h0L5.13,119.2ZM35.19,87.7,9.43,128.55l-8.1-3.7ZM1,125.8l8,3.67L1,162.71Zm9,3.91,19.6.93L1.5,164.9ZM1.56,166.4l28.08-34.23-8,34.23Zm21.41,0,30.9-43.1L41.69,166.4Zm19.75,0,11.91-42.11,5.18,42.11Zm12.61-44.59.17-.6L79,133.42l-7.79,17.52L60.71,165.57Zm6,44.59,10.43-14.56L99.09,166.4Zm11.59-15.07,22.33-6.52,5.58,21.4Zm23.34-6.59L133,147.57l-31.09,18.84ZM102.35,192l17.78-11.85-17.78,18.6Zm.23,7.95,20.92-21.86,7.68,15.29,3.3,6.57Zm21.82-22.29,39.92-3.55L135.45,199.6Zm40.89,22.29H136.61l28.68-25.36Zm26-33.51H165.79a.5.5,0,0,0-.5.5v3l-7-26.95,32.92,10.61Zm0-13.9-30.13-9.71,30.13.89Zm0-12.33-5.07-14.91,5.07-7.61Zm176.4,13.88L358.73,140l15.16-4.76A109.07,109.07,0,0,1,367.65,154.05Zm-98,20.09,15,16.1-23.48-4.56ZM260,185.56l-18.83,2.73L268,174.75ZM299.23,23.5l-44.31,20,4.52-24.11Zm-39.11-5L276,11.57,298.34,22.4Zm-7.58,92.27-7.78,15.56-21.57-14Zm-13.22-.28,14.36-30.29-.79,29.55Zm6.53,15.91L253.53,111l13.67,11.77Zm20.9-2.52-15.26,14-5.76-10.46Zm-.26-30.53-12.58,15.42.8-29.58ZM255.2,78.17,268.88,76a110.18,110.18,0,0,0-2,16.25Zm-1.13,32L266.8,94.52q-.17,3.9-.16,8.17a160.45,160.45,0,0,0,1,19.15Zm13.57-7.44q0-16.35,2.37-27.16s0,0,0,0v0a41.47,41.47,0,0,1,5.18-13.6h0c3.51-5.41,8.26-8.09,14.26-8.09,10,0,16.52,7.44,19.65,22.6a.41.41,0,0,0,0,.16h0a133.38,133.38,0,0,1,2.15,26.14A149.73,149.73,0,0,1,310,124.06s0,0,0,0,0,0,0,.05c-2.69,18.43-9.46,27.46-20.5,27.46-11.26,0-18.08-9.41-20.65-28.62a.11.11,0,0,1,0,0A154.7,154.7,0,0,1,267.64,102.69Zm66.23-3.57v9.94H313.93Zm-20,8.84,19.4-21.77L333.86,98Zm19.65-23.62-21.83-7.77,30-4Zm-.68.82-20.65,23.18c0-1.83.08-3.71.08-5.65a137.28,137.28,0,0,0-2-25.58Zm-7.94,33.05-13.87,5.19a130.46,130.46,0,0,0,1.09-13Zm-19.52,24.44,7,16.65L292,152.44C297.69,151.71,302.15,148.46,305.42,142.65ZM310.68,126l14.17,22.67-18.68-7.43A54.24,54.24,0,0,0,310.68,126Zm14.78-6.91-2.08,13.57-11.86-8.35Zm1,0,24,14.75L324.33,133Zm-12.88-9.07h20.54l16.38,22.65Zm21.25-12.69-.56-12,20.27-2.13Zm0,1.56,29.07,6.15L334.87,109Zm-.09-14.6,8.08-11.67,12.23,9.54Zm-23.53-8.71,28.63-24,2.31,19.84Zm-.13-1.19,8.69-17.49,18.35-5.14Zm-1.32.41c-2.09-9.21-5.48-15.51-10.22-19L318.67,57ZM298,54.8l-6.49-12.1,25.64,13.19Zm-1.49-.66A18.72,18.72,0,0,0,282.71,54l7.54-11.53ZM281,54.88a18.65,18.65,0,0,0-6.34,6L255.5,44.76l33.81-2.66ZM269.19,74.63,248.08,62.19h25.74A43.59,43.59,0,0,0,269.19,74.63Zm-1.11.5-13.55,2.13L247.44,63Zm-14.64,2.18H223.89l22.16-14.89Zm0,1-15,31.55L223.05,78.31Zm-15.73,32.24-15.6.86.58-31.52Zm6,16.25-20.6,4.77-.92-18.68Zm0,1-11.43,14.34-8.68-9.68Zm1.21.09,10.94,19.87-22.67-5.16ZM252,138.76l14.87-13.66-10.11,22.31Zm16.08-13.92q1.68,11,5.36,17.64l-15.71,5.21Zm6,18.7c3.5,5.72,8.26,8.7,14.31,9l-18,19.31Zm15,9.77,1.32,26.24-19.82-6.43Zm1-.12,22.28,17.69-21,8.63Zm2,.3,38.91,13.1-17.51,3.89ZM306.4,142.4l18.7,7.44-11.61,9.47Zm5.21-16.81,11.67,8.21,2,13.61ZM324.33,134l26.28.84-24.14,14Zm28.18.9h18.87l-41.16,12.93Zm-.22-1.46-17-23.53L366,105.81Zm13.71-29-30.41-6.43,20.58-14.74Zm-8.78-21.28,19.12,3.13-9.44,17.73Zm-1.43-1.74-12-9.34,27.13-8.54ZM343.18,71.28l-2.32-19.84,30,11.12ZM320.13,55.81l3.14-13.76,38.37,2.12Zm-1,0L291.45,41.56l34.33-15Zm-27.6-15.34,9.88-16.72L324.53,26Zm-1.52.61-32.93,2.58L299.89,24.3Zm-36.14,2.74L219,38.33l39.34-19h.1Zm.29,1.13,19.24,16.27H246.27L209.94,60Zm-9.46,17.22-22.34,15L208.32,61Zm-23.53,50.41.92,18.6-19.36-14.58Zm0-1.66L201.93,95l19.8-16.07Zm1.33,21.88,21.09,23.53-37-17.94Zm11.21,11,22,5-10,8.37Zm22.95,5.53,11.69,22.61-21.85-14.11Zm.87-.5L273,143.67l-3.68,28Zm13.8,25.62,38.36,12.42-23.42,3.64Zm21,5.76,20.39-8.39-1.35,14.55Zm21.43-8.76,17.41-3.87-18.74,18.16Zm.55-11.49,11.55-9.43,6.07,15.36Zm12.55-9.64L347.58,153,333,165.85Zm1.52-.81,29.36-9.22,9.06,14.31Zm24.8-15.55,13.55-27.34L374,133.94Zm24.3-31.25a143.6,143.6,0,0,1-2.92,29.5l-7.15-26.94,9.35-17.57C377.23,92.52,377.48,97.53,377.48,102.69Zm-1-17.34-19.94-3.26h0l15.58-18.4A126.2,126.2,0,0,1,376.52,85.35Zm-5-23.61-29.67-11,22.43-6.29A101.86,101.86,0,0,1,371.56,61.74ZM350,24.87a84.23,84.23,0,0,1,13.32,17.77L328.47,26.08ZM327,8.75a77.1,77.1,0,0,1,22.07,15.17L327,25.16ZM362.17,43.2,323.5,41.06l3.33-14.65ZM326,25.14l-23.3-2.3,23.3-14ZM325.39,8,302.14,22l7.58-18.93A84,84,0,0,1,325.39,8ZM300.86,22.51,277.41,11.17l31.17-7.94ZM289.47,1a97.84,97.84,0,0,1,17.66,1.56l-31,7.9L270.4,2.82A97.86,97.86,0,0,1,289.47,1ZM269.32,3.05l5.5,7.3-19.72-3A84.13,84.13,0,0,1,269.32,3.05Zm4.84,8.21-14.82,6.46-5.16-9.46ZM253,8.26l5.39,9.88L218.92,37.26A78.59,78.59,0,0,1,253,8.26ZM217.71,39.14l34.46,5.4-44.08,15A97.32,97.32,0,0,1,217.71,39.14ZM207.46,61.49l14,16.13-19,8A124.79,124.79,0,0,1,207.46,61.49Zm-5.18,25.28,16.93-7.13-17.5,14.2Q201.91,90.26,202.28,86.77Zm-.81,15.92q0-3.41.14-6.71l18.91,15.69-18.52,4Q201.48,109.37,201.47,102.69Zm.69,14.71L221.58,132l-15.93,5.58A128.59,128.59,0,0,1,202.16,117.4Zm3.93,21.85,38.36,18.59-24.79,11.37A98.83,98.83,0,0,1,206.09,139.25Zm31.83,49.08a80,80,0,0,1-17.68-18.28l24.66-11.31Zm8-29.67,22.67,14.64-29.67,15Zm-6.37,30.87,20.6-3,27.57,17.82C269.11,204.05,252.83,198.85,239.58,189.53ZM262.74,187l22.9,4.44,3,12.32Zm23.93,4.42L310,187.81,289.77,204Zm4.25,12.93,21-16.78,20.84,6.11C320.77,200.43,306.68,204.14,290.92,204.36Zm21.85-17.58,19.57-19,1.19,25.05Zm20.55-19.47L356.17,172l-22.27,7.41Zm1.21,25.36-.58-12.2L356.57,173A78.52,78.52,0,0,1,334.53,192.67Zm-.65-26.27,14.7-12.9,8.63,17.73Zm24.25,4.45-8.53-17.54,17.36,2.3A91.37,91.37,0,0,1,358.13,170.85Zm224.81-54.54-5.5,8.25-18.34-8.25Zm.1,26.36-31.72-.93,26-15.8Zm-25.11-25.79,18.62,8.38-26.07,15.82Zm-.79-.84-7.91,25.72-21.38,4.65L557.28,108v7.77s0,0,0,0A.51.51,0,0,0,557.14,116Zm-62.8,61.8V167.33l31.32-19-10.4,28.35Zm19.48-.05-19.48,13V178.84Zm11.65-32.45-28.75-28.76,18.55-1.85Zm-9.2-30.76,40.33-7.29-29.81,38.85ZM526.84,148l29.82,25-40.3,3.58Zm.88-.57,21.53-4.68,7.49,29Zm29.56-61v19.71l-40,7.23,30.16-26.94Zm-11.35,0-30.09,26.88-9.6-26.88Zm-49.63,0h8.88l9.18,25.72L496.3,93.36Zm0,8.37,18.24,19-18.24,1.83Zm-.43,22.33,29.44,29.45-37-2.85Zm-8.54,26.24-14.84-10.2,22.26-15.76Zm-41.21-23.13h0l0,.28-22.9,8.87,7.57-44.48,15.35,35,0,.06a.42.42,0,0,0,0,.19s0,0,0,.07ZM423,130.56l22.69-8.8-30.67,42.8Zm-.84-.89-19.7-.94,27.21-43.15Zm9.28-45.77L459,90.32l-12.29,28.36Zm66.83-47.15-48.4,31.58L481.21,21ZM482.76,21l41.93,8.25-25.44,7Zm14.78,17.42-16,26.28h-.07a.57.57,0,0,0-.13.08l-.08,0v0l-30.91,4.37ZM480.21,66,459.59,89.46,449,70.46Zm-22,23.09L431.78,83,448,70.81Zm1.34,2.39,9.26,24.06a.48.48,0,0,0-.07.26l-21.33,3.71Zm9.59,25.26L471,132.31l-22.85-11.88ZM486.47,144l-22,6.41,7.32-16.47Zm8.11-27.69L472,132.3l-1.88-16Zm-25.06-1.77-9.14-23.77,23.4,2.33Zm-8.88-24.75,20.61-23.42,2.84,25.76ZM485,91.26l-2.64-23.94,9,14.42Zm6.94-10.43-9.35-15L500.46,68Zm-9.31-16L498.74,38.4l2.14,28.65ZM501.81,66l-2.12-28.28,15.18,8.63ZM515.43,45.5l-15-8.52L525.72,30Zm11.21-16.86-43.21-8.5L541.86,5.76ZM538.86,5.47,481.43,19.6,476.14,5.47ZM475.28,6l5.15,13.74-16.28,2.39ZM463.37,23.29,478.8,21,454.59,36Zm16.08-1.48L449,67.93l4.31-30ZM452,39.72,447.75,69.4l-13.22-4.35ZM433.94,65.9l13.15,4.34L430.32,82.79l0,0h0l0,0h0L397.12,119.2Zm-6.76,21.8-25.75,40.85-8.1-3.7ZM393,125.8l8.05,3.67L393,162.71Zm9,3.91,19.59.93L393.49,164.9Zm-8.46,36.69,28.09-34.23-8,34.23Zm21.42,0,30.89-43.1-12.18,43.1Zm19.75,0,11.9-42.11,5.18,42.11Zm12.6-44.59.17-.6L471,133.42l-7.79,17.52-10.47,14.63Zm6,44.59,10.43-14.56,27.31,14.56Zm11.6-15.07,22.32-6.52,5.59,21.4Zm23.34-6.59L525,147.57l-31.1,18.84ZM494.34,192l17.79-11.85-17.79,18.6Zm.24,7.95,20.91-21.86,7.68,15.29,3.3,6.57Zm21.82-22.29,39.91-3.55L527.44,199.6Zm40.88,22.29H528.61l28.67-25.36Zm26-33.51H557.78a.51.51,0,0,0-.5.5v3l-6.95-26.95,32.92,10.61Zm0-13.9-30.13-9.71,30.13.89Zm0-12.33-5.08-14.91,5.08-7.61Z"/></g></g></svg>